<?xml version="1.0" encoding="UTF-8" standalone="no"?><!DOCTYPE svg PUBLIC "-//W3C//DTD SVG 1.1//EN" "http://www.w3.org/Graphics/SVG/1.1/DTD/svg11.dtd"><svg width="100%" height="100%" viewBox="0 0 1067 1067" version="1.1" xmlns="http://www.w3.org/2000/svg" xmlns:xlink="http://www.w3.org/1999/xlink" xml:space="preserve" xmlns:serif="http://www.serif.com/" style="fill-rule:evenodd;clip-rule:evenodd;stroke-linejoin:round;stroke-miterlimit:2;"><path d="M519.489,784.78l0,-64.275l-157.62,-24.056l157.62,88.331Zm27.688,-64.275l0,64.275l157.62,-88.331l-157.62,24.056Zm11.887,-29.823l199.26,-30.411l-79.429,-186.369l-119.831,216.78Zm-171.292,-216.78l-79.429,186.369l199.26,30.411l-119.831,-216.78Zm21.86,-17.687l123.701,223.782l123.701,-223.782l-247.402,0Zm-107.179,147.255l65.719,-154.2l-65.719,-30.584l0,184.784Zm396.042,-154.2l65.718,154.2l0,-184.784l-65.718,30.584Zm-119.997,143.792l-89.977,-0l0,-18.929l32.311,-32.662c6.515,-6.691 11.753,-12.282 15.715,-16.772c3.962,-4.49 6.837,-8.584 8.628,-12.281c1.79,-3.698 2.685,-7.66 2.685,-11.886c-0,-5.106 -1.423,-8.936 -4.27,-11.489c-2.847,-2.553 -6.647,-3.83 -11.401,-3.83c-4.989,0 -9.831,1.145 -14.527,3.434c-4.695,2.289 -9.596,5.546 -14.702,9.772l-14.791,-17.52c3.698,-3.169 7.616,-6.162 11.753,-8.98c4.138,-2.817 8.951,-5.091 14.439,-6.823c5.488,-1.731 12.076,-2.597 19.765,-2.597c8.451,0 15.715,1.526 21.789,4.578c6.075,3.052 10.756,7.205 14.043,12.458c3.287,5.253 4.93,11.196 4.93,17.828c-0,7.102 -1.409,13.587 -4.226,19.457c-2.817,5.869 -6.911,11.679 -12.281,17.431c-5.371,5.752 -11.842,12.12 -19.413,19.105l-16.552,15.583l0,1.232l56.082,0l-0,22.891Zm-163.392,-164.535l236.455,0l-118.228,-146.641l-118.227,146.641Zm-96.139,-32.695l63.215,29.418l95.37,-118.291l-158.585,88.873Zm365.518,29.418l63.215,-29.419l-158.586,-88.872l95.371,118.291Z" style="fill:#7f7f7f;"/></svg>