<?xml version="1.0" encoding="UTF-8" standalone="no"?><!DOCTYPE svg PUBLIC "-//W3C//DTD SVG 1.1//EN" "http://www.w3.org/Graphics/SVG/1.1/DTD/svg11.dtd"><svg width="100%" height="100%" viewBox="0 0 1900 1900" version="1.1" xmlns="http://www.w3.org/2000/svg" xmlns:xlink="http://www.w3.org/1999/xlink" xml:space="preserve" xmlns:serif="http://www.serif.com/" style="fill-rule:evenodd;clip-rule:evenodd;stroke-linejoin:round;stroke-miterlimit:2;"><path d="M911.887,1642.25l-0,-176.953l-433.937,-66.227l433.937,243.18Zm76.226,-176.953l0,176.953l433.936,-243.18l-433.936,66.227Zm32.724,-82.104l548.572,-83.723l-218.672,-513.083l-329.9,596.806Zm-471.574,-596.806l-218.672,513.083l548.572,83.723l-329.9,-596.806Zm60.182,-48.691l340.555,616.081l340.555,-616.081l-681.11,-0Zm-295.069,405.398l180.928,-424.52l-180.928,-84.197l0,508.717Zm1090.32,-424.52l180.928,424.52l-0,-508.717l-180.928,84.197Zm-330.357,395.866l-247.709,-0l0,-52.111l88.953,-89.922c17.935,-18.42 32.357,-33.811 43.264,-46.172c10.907,-12.362 18.824,-23.632 23.753,-33.812c4.928,-10.18 7.392,-21.087 7.392,-32.721c0,-14.058 -3.918,-24.601 -11.755,-31.63c-7.837,-7.029 -18.3,-10.543 -31.388,-10.543c-13.735,-0 -27.065,3.151 -39.992,9.452c-12.927,6.302 -26.419,15.27 -40.477,26.904l-40.719,-48.233c10.18,-8.725 20.965,-16.966 32.357,-24.722c11.392,-7.756 24.642,-14.018 39.75,-18.784c15.108,-4.767 33.246,-7.15 54.413,-7.15c23.269,-0 43.265,4.201 59.989,12.603c16.724,8.403 29.61,19.835 38.659,34.296c9.048,14.462 13.573,30.823 13.573,49.082c-0,19.551 -3.878,37.406 -11.634,53.565c-7.756,16.158 -19.027,32.155 -33.812,47.99c-14.785,15.836 -32.6,33.367 -53.444,52.596l-45.567,42.901l0,3.393l154.394,-0l0,63.018Zm-449.824,-452.971l650.97,-0l-325.485,-403.709l-325.485,403.709Zm-264.677,-90.013l174.035,80.99l262.559,-325.659l-436.594,244.669Zm1006.29,80.99l174.035,-80.99l-436.594,-244.67l262.559,325.66Z" style="fill:#7f7f7f;"/></svg>