<?xml version="1.0" encoding="UTF-8" standalone="no"?><!DOCTYPE svg PUBLIC "-//W3C//DTD SVG 1.1//EN" "http://www.w3.org/Graphics/SVG/1.1/DTD/svg11.dtd"><svg width="100%" height="100%" viewBox="0 0 143 143" version="1.1" xmlns="http://www.w3.org/2000/svg" xmlns:xlink="http://www.w3.org/1999/xlink" xml:space="preserve" xmlns:serif="http://www.serif.com/" style="fill-rule:evenodd;clip-rule:evenodd;stroke-linejoin:round;stroke-miterlimit:2;"><rect id="Artboard1" x="0" y="0" width="142.697" height="142.697" style="fill:none;"/><path d="M82.717,124.412l0,-9.345l-11.368,-6.563l-11.369,6.564l-0,9.344l0.082,0.037c-0,-0 22.573,-0 22.573,-0l0.082,-0.037Zm23.548,-12.485l-5.929,-3.423l-11.369,6.564l0,6.562l14.29,-6.363l3.008,-3.34Zm-69.833,0l3.008,3.34l14.29,6.363l-0,-6.562l-11.369,-6.564l-5.929,3.423Zm49.5,-2.324l-11.458,-6.616l-0,-13.023l11.368,-6.564l11.369,6.564c-0,-0 -0,13.127 -0,13.127l-11.279,6.512Zm-17.708,-6.616l-11.459,6.616l-11.279,-6.512c0,0 0,-13.127 0,-13.127l11.369,-6.564l11.369,6.564l-0,13.023Zm53.709,-15.486l-7.104,-4.101l-11.368,6.564l-0,13.127l7.079,4.088l7.822,-8.687l3.571,-10.991Zm-101.169,0l3.571,10.991l7.822,8.687l7.079,-4.088c0,0 0,-13.127 0,-13.127c0,-0 -11.368,-6.564 -11.368,-6.564l-7.104,4.101Zm79.572,-29.28l11.368,6.564c0,-0 0,13.127 0,13.127c0,0 -11.368,6.564 -11.368,6.564c-0,-0 -11.369,-6.564 -11.369,-6.564c0,0 0,-13.127 0,-13.127l11.369,-6.564Zm-28.987,0l11.368,6.564c0,-0 0,13.127 0,13.127c0,0 -11.368,6.564 -11.368,6.564c-0,-0 -11.369,-6.564 -11.369,-6.564c-0,0 -0,-13.127 -0,-13.127l11.369,-6.564Zm-40.356,6.564l-0,13.127l11.368,6.564l11.369,-6.564l-0,-13.127l-11.369,-6.564l-11.368,6.564Zm-13.634,12.238l1.43,4.402l5.954,-3.438l-0,-13.202l-5.749,-3.319l-1.635,15.557Zm106.344,-15.557l-5.749,3.319l0,13.202l5.954,3.438l1.43,-4.402l-1.635,-15.557Zm-12.097,-26.504l-8.145,4.703l-0,13.127l11.383,6.572l8.144,-4.702l-0.01,-0.089c0,0 -11.287,-19.549 -11.287,-19.549l-0.085,-0.062Zm-80.515,-0l-0.085,0.062c-0,-0 -11.287,19.549 -11.287,19.549l-0.009,0.089l8.143,4.702c0,-0 11.383,-6.572 11.383,-6.572l0,-13.127l-8.145,-4.703Zm37.133,4.703l-0,13.127l-11.369,6.564c-0,-0 -11.369,-6.564 -11.369,-6.564c0,0 0,-13.127 0,-13.127l11.369,-6.564l11.369,6.564Zm17.618,-6.564l11.369,6.564c-0,-0 -0,13.127 -0,13.127c-0,0 -11.369,6.564 -11.369,6.564c0,-0 -11.368,-6.564 -11.368,-6.564c-0,0 -0,-13.127 -0,-13.127l11.368,-6.564Zm-36.574,-11.346l-12.642,9.186l5.735,3.311l11.369,-6.564l-0,-6.881l-4.462,0.948Zm39.699,-0.948l0,6.881l11.369,6.564l5.735,-3.311l-12.642,-9.186l-4.462,-0.948Zm-28.987,-1.329l-0,8.197c-0,-0 11.369,6.563 11.369,6.563c-0,0 11.368,-6.564 11.368,-6.564l0,-8.196l-11.368,-2.416l-11.369,2.416Z" style="fill:#808080;"/></svg>