<?xml version="1.0" encoding="UTF-8" standalone="no"?><!DOCTYPE svg PUBLIC "-//W3C//DTD SVG 1.1//EN" "http://www.w3.org/Graphics/SVG/1.1/DTD/svg11.dtd"><svg width="100%" height="100%" viewBox="0 0 143 143" version="1.1" xmlns="http://www.w3.org/2000/svg" xmlns:xlink="http://www.w3.org/1999/xlink" xml:space="preserve" xmlns:serif="http://www.serif.com/" style="fill-rule:evenodd;clip-rule:evenodd;stroke-linejoin:round;stroke-miterlimit:2;"><rect id="Artboard1" x="0" y="0" width="142.697" height="142.697" style="fill:none;"/><path d="M75.547,114.324l-11.429,-6.598l-11.43,6.598l0,13.198l6.132,3.54l10.595,0l6.132,-3.54l0,-13.198Zm6.065,0l-0,13.198l4.455,2.573l18.404,-8.194l-0,-7.577l-11.43,-6.598l-11.429,6.598Zm-34.988,11.316l-0,-11.316l-11.43,-6.598l-7.327,4.23l8.015,8.901l10.742,4.783Zm63.911,-11.316l-0,2.402l4.503,-5.001l-4.503,2.599Zm-20.526,-25.048l-11.43,-6.599l-11.429,6.599l-0,13.198l11.429,6.599c0,-0 11.43,-6.599 11.43,-6.599l-0,-13.198Zm-28.923,0l-11.43,-6.599l-11.43,6.599l0,13.198l11.43,6.599c-0,-0 11.429,-6.599 11.43,-6.599l-0,-13.198Zm57.846,0l-11.429,-6.599l-11.43,6.599l0,13.198l11.43,6.599c-0,-0 11.429,-6.599 11.429,-6.599l0,-13.198Zm-86.77,0l-11.429,-6.599l-6.725,3.883l5.085,15.651l4.626,5.138l8.443,-4.875l0,-13.198Zm92.835,0l-0,8.649l3.459,-10.646l-3.459,1.997Zm-20.526,-25.048l-11.43,-6.599l-11.429,6.599l-0,13.197l11.429,6.599c0,0 11.43,-6.599 11.43,-6.599l-0,-13.197Zm-57.847,-0l-11.43,-6.599l-11.429,6.599l-0,13.197l11.429,6.599c0,0 11.43,-6.599 11.43,-6.599l-0,-13.197Zm28.923,-0l-11.429,-6.599l-11.43,6.599l0,13.197l11.43,6.599c-0,0 11.429,-6.599 11.429,-6.599l0,-13.197Zm54.099,-2.164l-7.682,-4.435l-11.429,6.599l-0,13.197l11.429,6.599l9.292,-5.364l0.101,-0.311l-1.711,-16.285Zm-118.306,16.285l0.752,2.314l5.608,-3.238l0,-13.197l-4.597,-2.655l-1.763,16.776Zm78.669,-39.17l-11.43,-6.599l-11.429,6.599l-0,13.198l11.429,6.599c0,-0 11.43,-6.599 11.43,-6.599l-0,-13.198Zm-28.923,0l-11.43,-6.599l-11.43,6.599l0,13.198l11.43,6.599l11.43,-6.599l-0,-13.198Zm57.846,0l-11.429,-6.599l-11.43,6.599l0,13.198l11.43,6.599c-0,-0 11.429,-6.599 11.429,-6.599l0,-13.198Zm-104.97,14.217l-0.165,1.575l6.936,4.005c-0,-0 11.429,-6.599 11.429,-6.599l0,-13.198l-7.494,-4.326l-10.706,18.543Zm111.035,-6.475l-0,5.456l3.865,2.232l-0.127,-1.213l-3.738,-6.475Zm-43.385,-33.037l-0,13.445l11.429,6.598c0,0 11.43,-6.598 11.43,-6.598l-0,-4.176l-8.58,-6.234l-14.279,-3.035Zm-34.988,3.168l-18.004,13.08l6.574,3.795c0,0 11.43,-6.598 11.43,-6.598l-0,-10.277Zm6.064,-1.383l0,11.66l11.43,6.598c-0,0 11.429,-6.598 11.429,-6.598l0,-14.734l-4.198,-0.893l-18.661,3.967Z" style="fill:#7f7f7f;"/></svg>