<?xml version="1.0" encoding="UTF-8" standalone="no"?><!DOCTYPE svg PUBLIC "-//W3C//DTD SVG 1.1//EN" "http://www.w3.org/Graphics/SVG/1.1/DTD/svg11.dtd"><svg width="100%" height="100%" viewBox="0 0 143 143" version="1.1" xmlns="http://www.w3.org/2000/svg" xmlns:xlink="http://www.w3.org/1999/xlink" xml:space="preserve" xmlns:serif="http://www.serif.com/" style="fill-rule:evenodd;clip-rule:evenodd;stroke-linejoin:round;stroke-miterlimit:2;"><rect id="Artboard1" x="0" y="0" width="142.697" height="142.697" style="fill:none;"/><path d="M89.614,127.442l10.119,-35.155l-28.384,-17.383l-28.385,17.383l10.119,35.155l36.531,-0Zm-76.012,-60.413l23.091,25.396l9.025,31.354l-13.223,-8.137c-0,0 -18.893,-32.835 -18.893,-32.835l0,-15.778Zm115.493,0l-0,15.778c-0,-0 -18.893,32.835 -18.893,32.835l-13.223,8.137l9.025,-31.354l23.091,-25.396Zm-0.728,-8.214l-19.244,-32.235l-34.742,8.199l-0,34.871l28.348,17.361l25.638,-28.196Zm-94.793,-32.235l-19.244,32.235l25.638,28.196c-0,0 28.348,-17.361 28.348,-17.361c0,-0 0,-34.871 0,-34.871l-34.742,-8.199Zm68.298,-4.52l-30.523,7.203l-30.524,-7.203l13.327,-6.829c0,0 34.393,0 34.393,0l13.327,6.829Z" style="fill:#7f7f7f;"/></svg>