<?xml version="1.0" encoding="UTF-8" standalone="no"?><!DOCTYPE svg PUBLIC "-//W3C//DTD SVG 1.1//EN" "http://www.w3.org/Graphics/SVG/1.1/DTD/svg11.dtd"><svg width="100%" height="100%" viewBox="0 0 143 143" version="1.1" xmlns="http://www.w3.org/2000/svg" xmlns:xlink="http://www.w3.org/1999/xlink" xml:space="preserve" xmlns:serif="http://www.serif.com/" style="fill-rule:evenodd;clip-rule:evenodd;stroke-linejoin:round;stroke-miterlimit:2;"><rect id="Artboard1" x="0" y="0" width="142.697" height="142.697" style="fill:none;"/><path d="M139.536,81.062l-6.065,-0l0,-0.12c-2.041,3.079 -4.56,5.983 -7.502,8.667c-12.328,11.247 -32.194,18.643 -54.62,18.643c-22.427,0 -42.293,-7.396 -54.621,-18.643c-2.942,-2.684 -5.461,-5.588 -7.502,-8.667l-0,0.12c-0,8.8 4.358,16.896 11.589,23.493c11.393,10.394 29.808,17.059 50.534,17.059c20.725,0 39.14,-6.665 50.533,-17.059c7.231,-6.597 11.589,-14.693 11.589,-23.493l6.065,-0Zm-6.065,-19.427c0,8.801 -4.358,16.897 -11.589,23.494c-11.393,10.394 -29.808,17.059 -50.533,17.059c-20.726,0 -39.141,-6.665 -50.534,-17.059c-7.231,-6.597 -11.589,-14.693 -11.589,-23.494c-0,-8.8 4.358,-16.896 11.589,-23.493c11.393,-10.394 29.808,-17.059 50.534,-17.059c20.725,-0 39.14,6.665 50.533,17.059c7.231,6.597 11.589,14.693 11.589,23.493Z" style="fill:#7f7f7f;"/></svg>