<?xml version="1.0" encoding="UTF-8" standalone="no"?><!DOCTYPE svg PUBLIC "-//W3C//DTD SVG 1.1//EN" "http://www.w3.org/Graphics/SVG/1.1/DTD/svg11.dtd"><svg width="100%" height="100%" viewBox="0 0 143 143" version="1.1" xmlns="http://www.w3.org/2000/svg" xmlns:xlink="http://www.w3.org/1999/xlink" xml:space="preserve" xmlns:serif="http://www.serif.com/" style="fill-rule:evenodd;clip-rule:evenodd;stroke-linejoin:round;stroke-miterlimit:2;"><rect id="Artboard1" x="0" y="0" width="142.697" height="142.697" style="fill:none;"/><path d="M68.316,126.249l0,-14.078l-34.522,-5.268l34.522,19.346Zm6.065,-14.078l-0,14.078l34.522,-19.346l-34.522,5.268Zm2.603,-6.532l43.643,-6.66l-17.397,-40.819l-26.246,47.479Zm-37.517,-47.479l-17.396,40.819l43.642,6.66l-26.246,-47.479Zm4.788,-3.874l27.094,49.013l27.093,-49.013l-54.187,-0Zm-23.475,32.252l14.394,-33.773l-14.394,-6.699l0,40.472Zm86.743,-33.773l14.394,33.773l-0,-40.472l-14.394,6.699Zm-62.069,-4.543l51.789,-0l-25.894,-32.118l-25.895,32.118Zm-21.057,-7.162l13.846,6.444l20.888,-25.909l-34.734,19.465Zm80.057,6.444l13.846,-6.444l-34.734,-19.465l20.888,25.909Z" style="fill:#7f7f7f;"/></svg>